<svg width="100" height="100" viewBox="0 0 100 100" fill="none" xmlns="http://www.w3.org/2000/svg">
<circle cx="50" cy="50" r="49.75" stroke="white" stroke-width="0.5"/>
<path fill-rule="evenodd" clip-rule="evenodd" d="M33.8854 36.1618C33.5327 36.3494 33.1707 36.7938 33.0687 37.1642C33.021 37.3372 32.9984 40.9821 33.0001 48.2056C33.0023 57.0333 33.0195 59.0359 33.0949 59.2489C33.237 59.6503 33.5224 59.9794 33.8929 60.1686L34.2303 60.341H39.8384C44.803 60.341 45.4465 60.353 45.4465 60.446C45.4465 60.5038 45.2724 61.2528 45.0596 62.1103L44.6728 63.6695L43.8387 63.6712C42.8454 63.6732 42.4538 63.7519 42.188 64.0029C41.8741 64.2994 41.801 64.5575 41.801 65.3685C41.801 66.1916 41.873 66.4359 42.2097 66.7554L42.4291 66.9634L49.4289 66.9817L56.4287 67L56.6575 66.843C57.1068 66.5347 57.1716 66.3763 57.1977 65.5221C57.2252 64.6269 57.1557 64.3243 56.8549 64.0277C56.5751 63.7521 56.1809 63.6695 55.1442 63.6695H54.3249L54.2557 63.4095C54.0529 62.6478 53.5641 60.5671 53.5636 60.4635C53.563 60.3506 53.9084 60.3422 59.2661 60.3248L64.9692 60.3063L65.2664 60.0957C65.6115 59.8511 65.8467 59.5263 65.9449 59.1584C65.9907 58.9871 66.0083 55.1834 65.9964 48.0162L65.9784 37.1342L65.7704 36.795C65.656 36.6086 65.4289 36.3614 65.2658 36.2458L64.9692 36.0356L49.5793 36.0178L34.1894 36L33.8854 36.1618ZM64.7696 37.2931L64.9122 37.4759V46.724V55.9722H49.5047H34.0973V46.724V37.4759L34.2398 37.2931L34.3824 37.1104H49.5047H64.6271L64.7696 37.2931ZM64.9122 57.9739C64.9122 58.7714 64.8971 58.8854 64.7696 59.0487L64.6271 59.2314H49.5047H34.3824L34.2398 59.0487C34.1124 58.8854 34.0973 58.7714 34.0973 57.9739V57.0817H49.5047H64.9122V57.9739ZM52.3659 60.4212C52.393 60.4654 52.5924 61.2143 52.809 62.0855L53.2029 63.6695H49.5047H45.8065L46.2005 62.0855C46.4171 61.2143 46.6165 60.4654 46.6436 60.4212C46.7139 60.3065 52.2956 60.3065 52.3659 60.4212ZM56.1079 65.3511V65.8885H49.5047H42.9015V65.3511V64.8137H49.5047H56.1079V65.3511Z" fill="white" stroke="white" stroke-width="0.2"/>
</svg>
