<svg width="65" height="65" viewBox="0 0 65 65" fill="none" xmlns="http://www.w3.org/2000/svg">
<path d="M31.1069 6.79317C30.4723 7.10352 28.5842 8.08627 26.9283 8.96558C25.2723 9.84489 22.6569 11.207 21.1247 12.0001C19.5926 12.7932 18.2307 13.5173 18.1069 13.6035C17.7664 13.8277 17.8592 15.0518 18.2616 15.7932C18.8188 16.7759 18.633 16.6552 27.1604 21.7759C30.2402 23.6208 30.3176 23.6552 30.7973 23.3449C31.7259 22.7759 33.0104 23.2414 33.5057 24.3104C34.4807 26.4139 32.0973 28.0345 29.7914 26.8277C29.0795 26.4656 24.0188 23.3966 21.2021 21.638C20.5676 21.2414 19.964 20.8794 19.8866 20.8449C19.7938 20.8104 19.0664 20.3449 18.2616 19.8277C16.6211 18.7759 15.2438 17.3449 14.795 16.2414C14.6402 15.8449 14.4235 15.5173 14.3307 15.5173C14.2533 15.5173 13.433 15.8966 12.5354 16.3621C11.6378 16.8277 9.87352 17.7242 8.61995 18.3794C6.29852 19.569 5.89614 19.9139 6.17471 20.4656C6.25209 20.638 7.39733 21.4311 8.69733 22.2242C12.7057 24.6897 25.0866 32.5863 29.4045 35.4311C31.664 36.9311 32.283 37.2587 32.608 37.1208C32.8711 37.0173 34.0164 36.3104 38.6902 33.3621C51.6128 25.1897 52.6188 24.5863 52.8045 24.7932C52.9128 24.9139 52.9438 26.8449 52.8973 30.5863L52.8354 36.1897L52.2009 36.8449C51.845 37.207 51.52 37.707 51.458 37.9483C51.4116 38.1725 51.3807 40.1035 51.4116 42.1897L51.458 46.0173L52.108 46.7587C52.4795 47.1725 52.9747 47.638 53.2223 47.8104L53.6711 48.1035L54.5688 47.3104C55.0795 46.8794 55.5592 46.3621 55.6676 46.1552C55.8069 45.8966 55.8533 44.6208 55.8688 41.9311C55.8688 38.4311 55.8378 38.0345 55.5592 37.4139C55.389 37.0518 55.1259 36.638 54.9557 36.5173C54.6616 36.2932 54.6461 35.9656 54.5688 29.9656C54.4914 24.3621 54.5069 23.638 54.7235 23.4311C54.8628 23.2932 55.8533 22.638 56.9211 21.9828C58.7473 20.8449 58.8866 20.7242 58.8866 20.2587C58.8866 19.7932 58.7783 19.6897 57.8807 19.1897C57.3235 18.8794 56.3795 18.3966 55.7759 18.1208C55.1723 17.8277 53.8723 17.1725 52.8664 16.638C51.8759 16.1208 51.0402 15.6897 51.0092 15.6897C50.9783 15.6897 50.1426 15.2587 49.1676 14.7414C48.1926 14.2242 45.2057 12.6897 42.5438 11.3104C39.8664 9.94835 36.539 8.24145 35.1461 7.51731C33.7533 6.79317 32.5307 6.20696 32.4378 6.20696C32.345 6.20696 31.7414 6.46558 31.1069 6.79317Z" fill="#14293A"/>
<path d="M20.8308 34.2759C20.7844 34.3621 20.8463 34.9138 20.9701 35.5345C21.388 37.8104 22.4404 40.1379 24.1892 42.7586C25.8606 45.2414 26.1237 45.8621 26.3868 47.9655L26.4797 48.7931H30.9523C33.413 48.7931 35.5332 48.8448 35.6725 48.8966C36.3999 49.2069 36.4154 50.7759 35.7035 51.1897C35.4713 51.3104 33.8927 51.3966 30.8749 51.431L26.3868 51.4655L26.3404 52.1552C26.263 53.0517 26.6499 53.8276 27.3308 54.2069C27.7797 54.431 28.4142 54.4828 31.1535 54.4828C34.2642 54.4828 34.4808 54.5 34.7904 54.8276C35.2856 55.3448 35.2547 56.2414 34.7285 56.7069C34.3416 57.0517 34.1249 57.069 30.6273 57.069C28.5999 57.069 26.913 57.1207 26.882 57.2069C26.7582 57.3966 27.3463 58.6379 27.7797 59.1552C27.9963 59.3966 28.507 59.7931 28.9094 60.0173C29.5749 60.3966 29.8535 60.431 32.082 60.4828C35.007 60.5517 36.0749 60.2759 37.0344 59.1724C38.1178 57.931 38.2261 57.2414 38.5201 50.2586C38.7058 45.9483 38.8297 45.5 40.6713 42.7931C42.5904 39.9828 43.782 37.2414 44.0606 35.0862C44.1844 34.0862 44.0606 34.0862 42.4356 35.1724C41.7237 35.6552 41.1047 36.0345 41.0582 36.0345C41.0118 36.0345 40.532 36.3448 40.0058 36.7241C39.4642 37.0862 38.4892 37.7414 37.8237 38.1552C37.1428 38.5862 35.7344 39.4828 34.6666 40.1724C32.4225 41.6207 32.407 41.6207 30.6427 40.5C29.4975 39.7586 22.5797 35.2414 21.4808 34.5C21.1713 34.2931 20.8773 34.1897 20.8308 34.2759Z" fill="#14293A"/>
</svg>
