<svg width="29" height="28" viewBox="0 0 29 28" fill="none" xmlns="http://www.w3.org/2000/svg">
<path fill-rule="evenodd" clip-rule="evenodd" d="M15.1693 0.0152178C14.3107 0.023304 13.3989 0.0318922 12.4309 0.0334259V0.0295824C1.07627 0.0411138 0 0.256367 0 13.9884C0 27.5628 0.390145 27.951 13.9588 27.951C14.6435 27.951 15.3164 27.9584 15.9743 27.9656C22.4663 28.0368 27.4878 28.092 27.8176 20.8726C28.7721 -0.112901 27.2211 -0.0982921 15.1693 0.0152178ZM21.0045 4.90353C21.0045 3.77537 21.9193 2.86054 23.0475 2.86054C24.1756 2.86054 25.0904 3.77537 25.0904 4.90353C25.0904 6.03168 24.1756 6.94651 23.0475 6.94651C21.9193 6.94651 21.0045 6.03168 21.0045 4.90353ZM5.2122 13.996C5.2122 9.16631 9.12711 5.24947 13.9569 5.24947C18.7866 5.24947 22.6996 9.16631 22.6996 13.996C22.6996 18.8258 18.7866 22.7407 13.9569 22.7407C9.12711 22.7407 5.2122 18.8258 5.2122 13.996ZM13.9569 8.31875C21.4619 8.31875 21.4715 19.6733 13.9569 19.6733C6.45375 19.6733 6.44222 8.31875 13.9569 8.31875Z" fill="white"/>
</svg>
